<svg width="100" height="100" viewBox="0 0 100 100" fill="none" xmlns="http://www.w3.org/2000/svg">
<circle cx="50" cy="50" r="49" fill="url(#paint0_linear)" stroke="white" stroke-width="2"/>
<path opacity="0.2" fill-rule="evenodd" clip-rule="evenodd" d="M67.0551 31.6705C68.2567 30.4689 70.2049 30.4689 71.4066 31.6705C72.6082 32.8721 72.6082 34.8203 71.4066 36.0219L54.3515 53.077L71.4066 70.1321C72.6082 71.3337 72.6082 73.2819 71.4066 74.4835C70.205 75.6851 68.2568 75.6851 67.0552 74.4835L50.0001 57.4284L32.945 74.4835C31.7434 75.6851 29.7952 75.6851 28.5936 74.4835C27.392 73.2818 27.392 71.3336 28.5936 70.132L45.6487 53.077L28.5937 36.022C27.392 34.8204 27.392 32.8722 28.5937 31.6706C29.7953 30.4689 31.7435 30.4689 32.9451 31.6706L50.0001 48.7255L67.0551 31.6705Z" fill="black"/>
<path fill-rule="evenodd" clip-rule="evenodd" d="M32.9451 28.5935C31.7435 27.3919 29.7953 27.3919 28.5937 28.5935C27.392 29.7951 27.392 31.7433 28.5937 32.9449L45.6487 49.9999L28.5936 67.055C27.392 68.2567 27.392 70.2049 28.5936 71.4065C29.7952 72.6081 31.7434 72.6081 32.945 71.4065L50.0001 54.3514L67.0552 71.4064C68.2568 72.608 70.205 72.608 71.4066 71.4064C72.6082 70.2048 72.6082 68.2566 71.4066 67.055L54.3516 49.9999L71.4066 32.9449C72.6082 31.7433 72.6082 29.7951 71.4066 28.5935C70.2049 27.3919 68.2567 27.3919 67.0551 28.5935L50.0001 45.6485L32.9451 28.5935Z" fill="white"/>
<defs>
<linearGradient id="paint0_linear" x1="49.2308" y1="3.84615" x2="49.2308" y2="96.9231" gradientUnits="userSpaceOnUse">
<stop stop-color="#FF7575"/>
<stop offset="0.541667" stop-color="#EB1818"/>
<stop offset="1" stop-color="#A50000"/>
</linearGradient>
</defs>
</svg>
