<svg width="100" height="100" viewBox="0 0 100 100" fill="none" xmlns="http://www.w3.org/2000/svg">
<circle cx="50" cy="50" r="49" fill="url(#paint0_linear)" stroke="white" stroke-width="2"/>
<g opacity="0.2">
<path fill-rule="evenodd" clip-rule="evenodd" d="M48.5718 30.868C48.5121 30.0204 49.1509 29.285 49.9984 29.2253C62.4597 28.3477 73.3354 37.6002 74.474 50.0291C74.5515 50.8752 73.9284 51.624 73.0823 51.7015C72.2361 51.779 71.4874 51.1559 71.4099 50.3098C70.424 39.5477 61.0055 31.5346 50.2146 32.2946C49.367 32.3543 48.6315 31.7156 48.5718 30.868Z" fill="black"/>
<path fill-rule="evenodd" clip-rule="evenodd" d="M49.3476 23.915C48.859 23.9541 48.3711 24.0038 47.8841 24.0642C47.0409 24.1687 46.2726 23.5698 46.1681 22.7266C46.0636 21.8834 46.6624 21.1151 47.5056 21.0106C48.0368 20.9448 48.569 20.8905 49.1021 20.8478C66.3868 19.4644 81.5113 32.3582 82.8937 49.631C82.9241 50.0108 82.9423 50.3778 82.9597 50.7284L82.9617 50.7678C83.0038 51.6164 82.35 52.3385 81.5013 52.3806C80.6527 52.4227 79.9306 51.7689 79.8885 50.9202L79.8874 50.898C79.8694 50.5346 79.8532 50.2088 79.8266 49.8765C78.5797 34.2969 64.9377 22.6672 49.3476 23.915Z" fill="black"/>
<path fill-rule="evenodd" clip-rule="evenodd" d="M51.1363 39.3241C51.2064 38.4773 51.9497 37.8477 52.7965 37.9179C59.0302 38.4343 64.2433 43.0023 65.5503 49.1523C65.7269 49.9834 65.1964 50.8004 64.3653 50.977C63.5342 51.1536 62.7172 50.623 62.5406 49.7919C61.5166 44.9734 57.4259 41.3888 52.5425 40.9843C51.6957 40.9141 51.0661 40.1708 51.1363 39.3241Z" fill="black"/>
</g>
<path fill-rule="evenodd" clip-rule="evenodd" d="M48.5718 29.3294C48.5121 28.4819 49.1509 27.7464 49.9984 27.6867C62.4597 26.8091 73.3354 36.0616 74.474 48.4905C74.5515 49.3366 73.9284 50.0854 73.0823 50.1629C72.2361 50.2404 71.4874 49.6173 71.4099 48.7712C70.424 38.0092 61.0055 29.9961 50.2146 30.756C49.367 30.8157 48.6315 30.177 48.5718 29.3294Z" fill="white"/>
<path fill-rule="evenodd" clip-rule="evenodd" d="M49.3476 22.3764C48.859 22.4155 48.3711 22.4652 47.8841 22.5256C47.0409 22.6301 46.2726 22.0313 46.1681 21.1881C46.0636 20.3448 46.6624 19.5766 47.5056 19.472C48.0368 19.4062 48.569 19.3519 49.1021 19.3093C66.3868 17.9258 81.5113 30.8196 82.8937 48.0925C82.9241 48.4722 82.9423 48.8393 82.9597 49.1898L82.9617 49.2292C83.0038 50.0778 82.35 50.7999 81.5013 50.842C80.6527 50.8841 79.9306 50.2303 79.8885 49.3817L79.8874 49.3594C79.8694 48.996 79.8532 48.6702 79.8266 48.338C78.5797 32.7583 64.9377 21.1286 49.3476 22.3764Z" fill="white"/>
<path fill-rule="evenodd" clip-rule="evenodd" d="M51.1363 37.7855C51.2064 36.9387 51.9497 36.3091 52.7965 36.3793C59.0302 36.8957 64.2433 41.4637 65.5503 47.6137C65.7269 48.4449 65.1964 49.2618 64.3653 49.4384C63.5342 49.615 62.7172 49.0845 62.5406 48.2534C61.5166 43.4349 57.4259 39.8503 52.5425 39.4457C51.6957 39.3756 51.0661 38.6322 51.1363 37.7855Z" fill="white"/>
<path opacity="0.2" d="M49.6532 71.0933C51.29 69.4539 52.937 67.8759 54.5022 66.2057C56.1186 64.4946 58.0213 63.7978 60.3538 64.1257C62.6146 64.4434 64.8857 64.6585 67.1567 64.9352C69.9291 65.2733 72.0262 67.3431 72.2104 70.1404C72.3434 72.2306 72.3434 74.3414 72.1899 76.4317C71.9751 79.3826 69.3869 81.6471 66.4202 81.5344C62.6658 81.3909 59.0034 80.6942 55.4025 79.649C38.1342 74.6078 24.7431 60.2116 21.0501 42.6083C20.5795 40.3643 20.3238 38.0589 20.0476 35.7739C19.6179 32.1364 22.1754 29.8515 24.6408 29.3494C24.8557 29.3084 25.0807 29.2572 25.2956 29.2572C27.4541 29.2675 29.6331 29.1547 31.7814 29.3289C34.4003 29.5441 36.3951 31.8905 36.6816 34.7083C36.9168 37.0035 37.2033 39.2884 37.459 41.5734C37.6739 43.4895 37.1317 45.1494 35.7711 46.5224C34.1036 48.2028 32.4259 49.8832 30.7379 51.5534C30.5129 51.7686 30.4413 51.9223 30.6049 52.2399C34.9425 60.4575 41.2237 66.7078 49.4486 71.0011C49.51 71.0421 49.5509 71.0625 49.6532 71.0933Z" fill="#201E1E"/>
<path d="M49.6532 68.0164C51.29 66.377 52.937 64.799 54.5022 63.1288C56.1186 61.4177 58.0213 60.7209 60.3538 61.0488C62.6146 61.3665 64.8857 61.5816 67.1567 61.8583C69.9291 62.1964 72.0262 64.2662 72.2104 67.0635C72.3434 69.1537 72.3434 71.2645 72.1899 73.3548C71.9751 76.3057 69.3869 78.5702 66.4202 78.4575C62.6658 78.314 59.0034 77.6173 55.4025 76.5721C38.1342 71.5309 24.7431 57.1347 21.0501 39.5314C20.5795 37.2874 20.3238 34.982 20.0476 32.697C19.6179 29.0595 22.1754 26.7746 24.6408 26.2725C24.8557 26.2315 25.0807 26.1803 25.2956 26.1803C27.4541 26.1905 29.6331 26.0778 31.7814 26.252C34.4003 26.4672 36.3951 28.8136 36.6816 31.6314C36.9168 33.9266 37.2033 36.2115 37.459 38.4965C37.6739 40.4126 37.1317 42.0725 35.7711 43.4455C34.1036 45.1259 32.4259 46.8063 30.7379 48.4765C30.5129 48.6917 30.4413 48.8454 30.6049 49.163C34.9425 57.3806 41.2237 63.6309 49.4486 67.9242C49.51 67.9652 49.5509 67.9856 49.6532 68.0164Z" fill="white"/>
<defs>
<linearGradient id="paint0_linear" x1="50" y1="0" x2="50" y2="100" gradientUnits="userSpaceOnUse">
<stop stop-color="#70E734"/>
<stop offset="1" stop-color="#279712"/>
</linearGradient>
</defs>
</svg>
